<?xml version="1.0" encoding="UTF-8" standalone="no" ?>
<!DOCTYPE svg PUBLIC "-//W3C//DTD SVG 1.1//EN" "http://www.w3.org/Graphics/SVG/1.1/DTD/svg11.dtd">
<svg xmlns="http://www.w3.org/2000/svg" xmlns:xlink="http://www.w3.org/1999/xlink" version="1.1" width="640" height="640" viewBox="0 0 640 640" xml:space="preserve">
<desc>Created with Fabric.js 5.3.0</desc>
<defs>
</defs>
<g transform="matrix(8.0535231214 0 0 8.0535231214 322.2350556131 312.7059724619)" id="KwOJJhKeVLZQ-TYgZUtRx"  >
<path style="stroke: rgb(252,134,29); stroke-width: 1; stroke-dasharray: none; stroke-linecap: butt; stroke-dashoffset: 0; stroke-linejoin: miter; stroke-miterlimit: 4; fill: rgb(255,255,255); fill-opacity: 0; fill-rule: nonzero; opacity: 1;"  transform=" translate(0, 0)" d="M -17.05158 -17.4891 C -32.004850000000005 3.071649999999998 -59.10765 17.090339999999998 -12.378680000000001 1.202490000000001 C 34.350289999999994 -14.68536 16.59328 23.6324 6.780199999999999 16.62305 C -3.0328800000000005 9.613699999999998 38.5559 -6.274150000000002 38.5559 -6.274150000000002" stroke-linecap="round" />
</g>
<g transform="matrix(8.0535231214 0 0 8.0535231214 563.8861932986 251.2122379506)" id="Mn7un13sxUVMYsApwghzG"  >
<path style="stroke: rgb(252,134,29); stroke-width: 1; stroke-dasharray: none; stroke-linecap: butt; stroke-dashoffset: 0; stroke-linejoin: miter; stroke-miterlimit: 4; fill: rgb(255,255,255); fill-opacity: 0; fill-rule: nonzero; opacity: 1;"  transform=" translate(0, 0)" d="M 8.55728 1.30835 L -8.55729 -1.3083400000000003" stroke-linecap="round" />
</g>
<g transform="matrix(8.0535231214 0 0 8.0535231214 580.1093347111 311.031284945)" id="Jjq-h7HFhujfvrL_FsM-f"  >
<path style="stroke: rgb(252,134,29); stroke-width: 1; stroke-dasharray: none; stroke-linecap: butt; stroke-dashoffset: 0; stroke-linejoin: miter; stroke-miterlimit: 4; fill: rgb(255,255,255); fill-opacity: 0; fill-rule: nonzero; opacity: 1;"  transform=" translate(0, 0)" d="M 6.54287 -5.9779 C -7.03563 6.53978 -6.540579999999999 5.97401 -6.540579999999999 5.97401" stroke-linecap="round" />
</g>
<g transform="matrix(8.0535231214 0 0 8.0535231214 635.5372711368 260.8964055282)" id="9R2bc0kR4pT9vP-GtUWLR"  >
<path style="stroke: rgb(252,134,29); stroke-width: 1; stroke-dasharray: none; stroke-linecap: butt; stroke-dashoffset: 0; stroke-linejoin: miter; stroke-miterlimit: 4; fill: rgb(255,255,255); fill-opacity: 0; fill-rule: nonzero; opacity: 1;"  transform=" translate(0, 0)" d="M 0 0" stroke-linecap="round" />
</g>
<g transform="matrix(8.0535231214 0 0 8.0535231214 633.3242971234 257.9174020485)" id="aGL5NQirW7vRCJq7Q2RsL"  >
<path style="stroke: rgb(252,134,29); stroke-width: 1; stroke-dasharray: none; stroke-linecap: butt; stroke-dashoffset: 0; stroke-linejoin: miter; stroke-miterlimit: 4; fill: rgb(255,255,255); fill-opacity: 0; fill-rule: nonzero; opacity: 1;"  transform=" translate(0, 0)" d="M 0 0" stroke-linecap="round" />
</g>
<g transform="matrix(8.0535231214 0 0 8.0535231214 628.2531334268 262.8390900018)" id="UByMpDIX6DPw5s1Q1tUIZ"  >
<path style="stroke: rgb(252,134,29); stroke-width: 1; stroke-dasharray: none; stroke-linecap: round; stroke-dashoffset: 0; stroke-linejoin: round; stroke-miterlimit: 10; fill: none; fill-rule: nonzero; opacity: 1;"  transform=" translate(-310.0963485502, -281.5308129651)" d="M 309.42562311042207 281.66169344159385 Q 309.42662311042204 281.6606934415939 309.4562791033318 281.6547670562991 Q 309.4859350962416 281.6488406710043 309.5037286919875 281.6429142857095 Q 309.5215222877333 281.6369879004147 309.5452470820611 281.6310615151199 Q 309.56897187638896 281.6251351298251 309.6045590678807 281.6192087445303 Q 309.64014625937244 281.6132823592355 309.6520086565364 281.6073559739407 Q 309.6638710537003 281.6014295886459 309.6757334508642 281.6014295886459 Q 309.6875958480281 281.6014295886459 309.69352704661003 281.6014295886459 Q 309.69945824519203 281.6014295886459 309.705389443774 281.5955032033511 Q 309.71132064235593 281.5895768180563 309.7172518409379 281.5895768180563 Q 309.7231830395198 281.5895768180563 309.7350454366838 281.5836504327615 Q 309.7469078338477 281.5777240474667 309.75877023101157 281.5777240474667 Q 309.7706326281755 281.5777240474667 309.77656382675747 281.5717976621719 Q 309.7824950253394 281.5658712768771 309.7943574225033 281.5658712768771 Q 309.8062198196672 281.5658712768771 309.81808221683116 281.5658712768771 Q 309.82994461399505 281.5658712768771 309.835875812577 281.5658712768771 Q 309.84180701115895 281.5658712768771 309.85366940832284 281.5658712768771 Q 309.8655318054868 281.5658712768771 309.87739420265075 281.5658712768771 Q 309.88925659981464 281.5658712768771 309.90111899697854 281.5658712768771 Q 309.91298139414243 281.5658712768771 309.9189125927244 281.5658712768771 Q 309.92484379130633 281.5658712768771 309.9307749898883 281.5658712768771 Q 309.9367061884703 281.5658712768771 309.9544997842162 281.5658712768771 Q 309.972293379962 281.5658712768771 309.978224578544 281.5658712768771 Q 309.9841557771259 281.5658712768771 309.99008697570787 281.5658712768771 Q 309.9960181742898 281.5658712768771 310.0078805714537 281.5658712768771 Q 310.01974296861766 281.5658712768771 310.0256741671996 281.5658712768771 Q 310.03160536578156 281.5658712768771 310.0375365643635 281.5658712768771 Q 310.04346776294545 281.5658712768771 310.0553301601094 281.5658712768771 Q 310.0671925572733 281.5658712768771 310.07312375585525 281.5599448915823 Q 310.0790549544372 281.5540185062875 310.08498615301914 281.5540185062875 Q 310.09091735160115 281.5540185062875 310.0968485501831 281.5540185062875 Q 310.10277974876504 281.5540185062875 310.108710947347 281.5540185062875 Q 310.11464214592894 281.5540185062875 310.12057334451094 281.5540185062875 Q 310.1265045430929 281.5540185062875 310.1383669402568 281.5540185062875 Q 310.1502293374207 281.5540185062875 310.15616053600263 281.5540185062875 Q 310.16209173458464 281.5540185062875 310.1680229331666 281.5480921209927 Q 310.17395413174853 281.5421657356979 310.1798853303305 281.5421657356979 Q 310.1858165289124 281.5421657356979 310.1917477274944 281.5421657356979 Q 310.1976789260763 281.5421657356979 310.2036101246583 281.5421657356979 Q 310.2095413232403 281.5421657356979 310.2154725218222 281.5421657356979 Q 310.22140372040417 281.5421657356979 310.2273349189861 281.5421657356979 Q 310.23326611756806 281.5421657356979 310.23919731615 281.5421657356979 Q 310.245128514732 281.5421657356979 310.25105971331396 281.5421657356979 Q 310.2569909118959 281.5421657356979 310.26292211047786 281.5421657356979 Q 310.2688533090598 281.5421657356979 310.2747845076418 281.5421657356979 Q 310.28071570622376 281.5421657356979 310.2866469048057 281.5421657356979 Q 310.29257810338765 281.5421657356979 310.2985093019696 281.5421657356979 Q 310.30444050055155 281.5421657356979 310.3103716991335 281.5421657356979 Q 310.31630289771545 281.5421657356979 310.31630289771545 281.5362393504031 Q 310.31630289771545 281.5303129651083 310.31630289771545 281.5243865798135 Q 310.31630289771545 281.51846019451875 310.3222340962974 281.51846019451875 Q 310.3281652948794 281.51846019451875 310.33409649346135 281.51846019451875 Q 310.3400276920433 281.51846019451875 310.34595889062524 281.51846019451875 Q 310.3518900892072 281.51846019451875 310.3578212877892 281.51846019451875 Q 310.36375248637114 281.51846019451875 310.3696836849531 281.51846019451875 Q 310.37561488353504 281.51846019451875 310.381546082117 281.51846019451875 Q 310.38747728069893 281.51846019451875 310.3934084792809 281.51846019451875 Q 310.3993396778629 281.51846019451875 310.40527087644483 281.51846019451875 Q 310.4112020750268 281.51846019451875 310.4112020750268 281.51253380922395 Q 310.4112020750268 281.50660742392915 310.4171332736087 281.50660742392915 Q 310.4230644721907 281.50660742392915 310.4289956707726 281.50660742392915 Q 310.43492686935457 281.50660742392915 310.43492686935457 281.50068103863435 Q 310.43492686935457 281.49475465333956 310.4408580679366 281.49475465333956 Q 310.4467892665185 281.49475465333956 310.45272046510047 281.48882826804476 Q 310.4586516636824 281.48290188274996 310.46458286226436 281.48290188274996 Q 310.4705140608463 281.48290188274996 310.47644525942826 281.47697549745516 Q 310.48237645801026 281.47104911216036 310.4883076565922 281.47104911216036 Q 310.49423885517416 281.47104911216036 310.49423885517416 281.46512272686556 Q 310.49423885517416 281.45919634157076 310.5001700537561 281.45919634157076 Q 310.50610125233806 281.45919634157076 310.51203245092006 281.45919634157076 Q 310.517963649502 281.45919634157076 310.52389484808396 281.45919634157076 Q 310.5298260466659 281.45919634157076 310.53575724524785 281.45919634157076 Q 310.5416884438298 281.45919634157076 310.54761964241175 281.45919634157076 Q 310.55355084099375 281.45919634157076 310.5594820395757 281.45919634157076 Q 310.56541323815765 281.45919634157076 310.5713444367396 281.45919634157076 Q 310.57727563532154 281.45919634157076 310.5832068339035 281.45919634157076 Q 310.58913803248544 281.45919634157076 310.59506923106744 281.45919634157076 Q 310.6010004296494 281.45919634157076 310.60693162823134 281.45919634157076 Q 310.6128628268133 281.45919634157076 310.61879402539523 281.45326995627596 Q 310.6247252239772 281.44734357098116 310.6247252239772 281.44141718568636 Q 310.6247252239772 281.43549080039156 310.6306564225591 281.43549080039156 Q 310.63658762114113 281.43549080039156 310.6425188197231 281.43549080039156 Q 310.648450018305 281.43549080039156 310.654381216887 281.43549080039156 Q 310.6603124154689 281.43549080039156 310.6662436140509 281.43549080039156 Q 310.6721748126329 281.43549080039156 310.6781060112148 281.43549080039156 Q 310.68403720979677 281.43549080039156 310.6899684083787 281.43549080039156 Q 310.69589960696067 281.43549080039156 310.7018308055426 281.43549080039156 Q 310.70776200412456 281.43549080039156 310.7136932027065 281.43549080039156 Q 310.7196244012885 281.43549080039156 310.72555559987046 281.43549080039156 Q 310.7314867984524 281.43549080039156 310.7314867984524 281.42956441509676 Q 310.7314867984524 281.42363802980196 310.7314867984524 281.41771164450716 Q 310.7314867984524 281.41178525921237 310.73741799703436 281.41178525921237 Q 310.7433491956163 281.41178525921237 310.7433491956163 281.40585887391757 Q 310.7433491956163 281.39993248862277 310.7492803941983 281.39993248862277 Q 310.75521159278026 281.39993248862277 310.7611427913622 281.39993248862277 Q 310.76707398994415 281.39993248862277 310.76707398994415 281.40585887391757 Q 310.76707398994415 281.41178525921237 310.76707398994415 281.42363802980196 L 310.76707398994415 281.43649080039154" stroke-linecap="round" />
</g>
<g transform="matrix(8.0535231214 0 0 8.0535231214 530.3802621957 356.7583785281)" id="dFwZJN2Hg84mC23yFBLfi"  >
<path style="stroke: rgb(252,134,29); stroke-width: 1; stroke-dasharray: none; stroke-linecap: round; stroke-dashoffset: 0; stroke-linejoin: round; stroke-miterlimit: 10; fill: none; fill-rule: nonzero; opacity: 1;"  transform=" translate(-297.9435466328, -293.1927014468)" d="M 298.2979392300877 292.87995058467976 Q 298.29693923008773 292.87995058467976 298.29189076441264 292.8900393221667 Q 298.2868422987376 292.9001280596536 298.2817938330625 292.9001280596536 Q 298.27674536738743 292.9001280596536 298.2716969017124 292.905172428397 Q 298.2666484360373 292.9102167971405 298.2615999703622 292.9102167971405 Q 298.2565515046872 292.9102167971405 298.2515030390121 292.9102167971405 Q 298.246454573337 292.9102167971405 298.241406107662 292.9102167971405 Q 298.2363576419869 292.9102167971405 298.2313091763118 292.915261165884 Q 298.2262607106368 292.9203055346274 298.2212122449617 292.9203055346274 Q 298.2161637792866 292.9203055346274 298.2111153136116 292.9203055346274 Q 298.2060668479365 292.9203055346274 298.2010183822614 292.9203055346274 Q 298.19596991658636 292.9203055346274 298.19596991658636 292.92534990337083 Q 298.19596991658636 292.9303942721143 298.19596991658636 292.9354386408578 Q 298.19596991658636 292.9404830096012 298.1909214509113 292.9404830096012 Q 298.1858729852362 292.9404830096012 298.18082451956116 292.9404830096012 Q 298.17577605388607 292.9404830096012 298.170727588211 292.94552737834465 Q 298.16567912253595 292.9505717470881 298.16063065686086 292.9505717470881 Q 298.1555821911858 292.9505717470881 298.15053372551074 292.9556161158315 Q 298.14548525983565 292.960660484575 298.14043679416056 292.96570485331847 Q 298.1353883284855 292.9707492220619 298.12529139713536 292.9757935908053 Q 298.11519446578524 292.9808379595488 298.11014600011015 292.9858823282923 Q 298.10509753443506 292.9909266970357 298.10004906876 292.99597106577914 Q 298.09500060308494 293.0010154345226 298.0899521374099 293.0010154345226 Q 298.0849036717348 293.0010154345226 298.0849036717348 293.0060598032661 Q 298.0849036717348 293.01110417200954 298.07985520605973 293.01614854075297 Q 298.07480674038464 293.0211929094964 298.06975827470956 293.0262372782398 Q 298.0647098090345 293.0312816469833 298.0596613433595 293.0312816469833 Q 298.0546128776844 293.0312816469833 298.0546128776844 293.0363260157268 Q 298.0546128776844 293.0413703844702 298.0546128776844 293.04641475321364 Q 298.0546128776844 293.0514591219571 298.0495644120093 293.0514591219571 Q 298.04451594633423 293.0514591219571 298.04451594633423 293.0565034907006 Q 298.04451594633423 293.06154785944403 298.04451594633423 293.06659222818746 Q 298.04451594633423 293.07163659693094 298.04451594633423 293.0766809656744 Q 298.04451594633423 293.08172533441785 298.04451594633423 293.0867697031613 Q 298.04451594633423 293.0918140719047 298.03946748065914 293.0918140719047 Q 298.0344190149841 293.0918140719047 298.02432208363393 293.0918140719047 Q 298.0142251522838 293.0918140719047 298.0142251522838 293.09685844064813 Q 298.0142251522838 293.1019028093916 298.0091766866087 293.1019028093916 Q 298.0041282209337 293.1019028093916 298.0041282209337 293.1069471781351 Q 298.0041282209337 293.1119915468785 297.99907975525866 293.1119915468785 Q 297.9940312895836 293.1119915468785 297.9889828239085 293.11703591562195 Q 297.9839343582334 293.12208028436544 297.9839343582334 293.1271246531089 Q 297.9839343582334 293.13216902185235 297.9788858925583 293.13216902185235 Q 297.9738374268833 293.13216902185235 297.9738374268833 293.1372133905958 Q 297.9738374268833 293.14225775933926 297.9687889612082 293.14730212808274 Q 297.9637404955331 293.15234649682617 297.9637404955331 293.1573908655696 Q 297.9637404955331 293.162435234313 297.95869202985807 293.162435234313 Q 297.953643564183 293.162435234313 297.9485950985079 293.162435234313 Q 297.94354663283286 293.162435234313 297.94354663283286 293.16747960305645 Q 297.94354663283286 293.17252397179993 297.9384981671578 293.1775683405434 Q 297.9334497014827 293.18261270928684 297.9334497014827 293.18765707803027 Q 297.9334497014827 293.19270144677375 297.92840123580766 293.19774581551724 Q 297.92335277013257 293.20279018426066 297.9183043044575 293.20279018426066 Q 297.91325583878245 293.20279018426066 297.91325583878245 293.2078345530041 Q 297.91325583878245 293.2128789217476 297.91325583878245 293.21792329049106 Q 297.91325583878245 293.2229676592345 297.90820737310736 293.2229676592345 Q 297.90315890743227 293.2229676592345 297.89811044175724 293.2229676592345 Q 297.89306197608215 293.2229676592345 297.89306197608215 293.2280120279779 Q 297.89306197608215 293.23305639672134 297.88801351040706 293.23305639672134 Q 297.88296504473203 293.23305639672134 297.88296504473203 293.23810076546476 Q 297.88296504473203 293.24314513420825 297.87791657905694 293.24314513420825 Q 297.87286811338186 293.24314513420825 297.8678196477068 293.24314513420825 Q 297.86277118203174 293.24314513420825 297.86277118203174 293.24818950295173 Q 297.86277118203174 293.25323387169516 297.86277118203174 293.2582782404386 Q 297.86277118203174 293.26332260918207 297.85772271635665 293.26332260918207 Q 297.8526742506816 293.26332260918207 297.8526742506816 293.26836697792555 Q 297.8526742506816 293.273411346669 297.8476257850065 293.2784557154124 Q 297.84257731933144 293.2835000841559 297.8375288536564 293.2835000841559 Q 297.8324803879813 293.2835000841559 297.8324803879813 293.2885444528994 Q 297.8324803879813 293.2935888216428 297.82743192230623 293.2935888216428 Q 297.8223834566312 293.2935888216428 297.8173349909561 293.2935888216428 Q 297.812286525281 293.2935888216428 297.812286525281 293.2986331903862 Q 297.812286525281 293.3036775591297 297.807238059606 293.3036775591297 Q 297.8021895939309 293.3036775591297 297.8021895939309 293.30872192787314 Q 297.8021895939309 293.31376629661656 297.7971411282558 293.31376629661656 Q 297.7920926625807 293.31376629661656 297.7920926625807 293.31881066536005 Q 297.7920926625807 293.3238550341035 297.7920926625807 293.3288994028469 Q 297.7920926625807 293.3339437715904 297.78704419690564 293.3339437715904 Q 297.7819957312306 293.3339437715904 297.7819957312306 293.33898814033387 Q 297.7819957312306 293.3440325090773 297.7769472655556 293.3490768778207 Q 297.7718987998805 293.3541212465642 297.7668503342054 293.3541212465642 Q 297.7618018685303 293.3541212465642 297.7618018685303 293.3591656153077 Q 297.7618018685303 293.3642099840511 297.7567534028552 293.3642099840511 Q 297.7517049371802 293.3642099840511 297.74665647150516 293.3642099840511 Q 297.7416080058301 293.3642099840511 297.736559540155 293.3642099840511 Q 297.7315110744799 293.3642099840511 297.7315110744799 293.36925435279454 Q 297.7315110744799 293.374298721538 297.7315110744799 293.37934309028145 Q 297.7315110744799 293.3843874590249 297.7264626088048 293.3843874590249 Q 297.7214141431298 293.3843874590249 297.7214141431298 293.38943182776836 Q 297.7214141431298 293.3944761965118 297.7214141431298 293.3995205652552 Q 297.7214141431298 293.4045649339987 297.71636567745475 293.4045649339987 Q 297.71131721177966 293.4045649339987 297.71131721177966 293.4096093027422 Q 297.71131721177966 293.4146536714856 297.70626874610457 293.4146536714856 Q 297.7012202804295 293.4146536714856 297.7012202804295 293.41969804022904 Q 297.7012202804295 293.4247424089725 297.6961718147544 293.4247424089725 Q 297.69112334907936 293.4247424089725 297.68607488340433 293.4247424089725 Q 297.68102641772924 293.4247424089725 297.68102641772924 293.429786777716 Q 297.68102641772924 293.43483114645943 297.67597795205415 293.43483114645943 Q 297.67092948637907 293.43483114645943 297.665881020704 293.43483114645943 Q 297.66083255502895 293.43483114645943 297.66083255502895 293.43987551520286 Q 297.66083255502895 293.44491988394634 297.6557840893539 293.44491988394634 Q 297.6507356236788 293.44491988394634 297.6507356236788 293.44996425268977 Q 297.6507356236788 293.4550086214332 297.64568715800374 293.4550086214332 Q 297.64063869232865 293.4550086214332 297.64063869232865 293.4600529901767 Q 297.64063869232865 293.4650973589201 297.64063869232865 293.47014172766353 Q 297.64063869232865 293.475186096407 297.63559022665356 293.475186096407 Q 297.63054176097853 293.475186096407 297.63054176097853 293.4802304651505 Q 297.63054176097853 293.4852748338939 297.62549329530344 293.4852748338939 Q 297.62044482962835 293.4852748338939 297.6153963639533 293.4852748338939 Q 297.61034789827823 293.4852748338939 297.61034789827823 293.49031920263735 Q 297.61034789827823 293.49536357138084 297.60529943260315 293.49536357138084 Q 297.6002509669281 293.49536357138084 297.6002509669281 293.5004079401243 Q 297.6002509669281 293.50545230886775 297.595202501253 293.50545230886775 L 297.58915403557796 293.50545230886775" stroke-linecap="round" />
</g>
<g transform="matrix(1 0 0 1 -30.5472230271 205.9776515425)" id="8Z4mLU_lAS8lxYgGVVxJn"  >
<path style="stroke: rgb(252,134,29); stroke-width: 1; stroke-dasharray: none; stroke-linecap: round; stroke-dashoffset: 0; stroke-linejoin: round; stroke-miterlimit: 10; fill: none; fill-rule: nonzero; opacity: 1;"  transform=" translate(30.5472230271, -205.9776515425)" d="M -30.54822302709857 205.97765154250396 L -30.546223027098566 205.97765154250396" stroke-linecap="round" />
</g>
</svg>